# MagicaVoxel @ Ephtracy

# material
mtllib player.mtl
usemtl palette

# normals
vn -1 0 0
vn 1 0 0
vn 0 0 1
vn 0 0 -1
vn 0 -1 0
vn 0 1 0

# texcoords
vt 0.0332031 0.5
vt 0.0605469 0.5
vt 0.310547 0.5
vt 0.341797 0.5
vt 0.478516 0.5
vt 0.482422 0.5
vt 0.646484 0.5
vt 0.787109 0.5
vt 0.814453 0.5
vt 0.982422 0.5
vt 0.986328 0.5
vt 0.990234 0.5
vt 0.994141 0.5

# verts
v -5 5 6.5
v -5 5 5.5
v -5 8 6.5
v -5 8 5.5
v -4 4 5.5
v -4 4 4.5
v -4 5 5.5
v -4 5 4.5
v -4 5 3.5
v -4 5 -0.5
v -4 6 8.5
v -4 6 6.5
v -4 6 4.5
v -4 6 3.5
v -4 6 2.5
v -4 6 0.5
v -4 6 -0.5
v -4 6 -1.5
v -4 7 10.5
v -4 7 8.5
v -4 7 7.5
v -4 7 6.5
v -4 7 5.5
v -4 7 4.5
v -4 7 2.5
v -4 7 0.5
v -4 7 -0.5
v -4 8 10.5
v -4 8 7.5
v -4 8 3.5
v -4 8 2.5
v -4 8 0.5
v -4 8 -0.5
v -4 10 3.5
v -4 10 0.5
v -4 10 -0.5
v -4 10 -1.5
v -4 11 0.5
v -4 11 -0.5
v -3 1 1.5
v -3 1 -1.5
v -3 2 2.5
v -3 2 1.5
v -3 2 -1.5
v -3 2 -2.5
v -3 3 2.5
v -3 3 -2.5
v -3 5 2.5
v -3 5 -0.5
v -3 6 0.5
v -3 6 -0.5
v -3 6 -1.5
v -3 6 -2.5
v -3 7 0.5
v -3 7 -0.5
v -3 10 1.5
v -3 10 0.5
v -3 10 -0.5
v -3 10 -1.5
v -3 11 1.5
v -3 11 0.5
v -3 11 -0.5
v -3 11 -1.5
v -3 11 -2.5
v -3 12 0.5
v -3 12 -1.5
v -2 0 0.5
v -2 0 -0.5
v -2 1 0.5
v -2 1 -0.5
v -2 6 -2.5
v -2 6 -3.5
v -2 10 2.5
v -2 10 1.5
v -2 11 2.5
v -2 11 1.5
v -2 11 0.5
v -2 11 -1.5
v -2 11 -2.5
v -2 11 -3.5
v -2 12 1.5
v -2 12 0.5
v -2 12 -1.5
v -2 12 -2.5
v 1 0 0.5
v 1 0 -0.5
v 1 1 1.5
v 1 1 0.5
v 1 1 -0.5
v 1 1 -1.5
v 1 2 1.5
v 1 2 0.5
v 1 2 -0.5
v 1 2 -1.5
v 1 12 0.5
v 1 12 -0.5
v 1 12 -1.5
v 1 13 0.5
v 1 13 -0.5
v 1 13 -1.5
v 3 6 2.5
v 3 6 1.5
v 3 7 2.5
v 3 7 1.5
v 3 9 2.5
v 3 9 1.5
v -3 4 5.5
v -3 4 4.5
v -3 5 5.5
v -3 5 4.5
v -3 5 3.5
v -3 5 2.5
v -3 6 8.5
v -3 6 6.5
v -3 6 4.5
v -3 6 3.5
v -3 6 2.5
v -3 6 1.5
v -3 7 10.5
v -3 7 8.5
v -3 7 7.5
v -3 7 6.5
v -3 7 5.5
v -3 7 4.5
v -3 7 2.5
v -3 7 1.5
v -3 8 10.5
v -3 8 7.5
v -3 8 3.5
v -3 8 2.5
v -3 9 3.5
v -3 9 1.5
v -2 5 6.5
v -2 5 5.5
v -2 8 6.5
v -2 8 5.5
v -1 0 0.5
v -1 0 -0.5
v -1 1 1.5
v -1 1 0.5
v -1 1 -0.5
v -1 1 -1.5
v -1 2 1.5
v -1 2 0.5
v -1 2 -0.5
v -1 2 -1.5
v 2 0 0.5
v 2 0 -0.5
v 2 1 0.5
v 2 1 -0.5
v 2 6 -2.5
v 2 6 -3.5
v 2 10 -2.5
v 2 11 1.5
v 2 11 0.5
v 2 11 -1.5
v 2 11 -2.5
v 2 11 -3.5
v 2 12 1.5
v 2 12 0.5
v 2 12 -0.5
v 2 12 -1.5
v 2 12 -2.5
v 2 13 0.5
v 2 13 -0.5
v 2 13 -1.5
v 3 1 1.5
v 3 1 -1.5
v 3 2 2.5
v 3 2 1.5
v 3 2 0.5
v 3 2 -0.5
v 3 2 -1.5
v 3 2 -2.5
v 3 3 2.5
v 3 3 0.5
v 3 3 -0.5
v 3 3 -2.5
v 3 6 2.5
v 3 6 0.5
v 3 6 -0.5
v 3 6 -1.5
v 3 6 -2.5
v 3 7 0.5
v 3 7 -0.5
v 3 9 3.5
v 3 9 2.5
v 3 9 -1.5
v 3 10 3.5
v 3 10 2.5
v 3 10 -1.5
v 3 10 -2.5
v 3 11 0.5
v 3 11 -0.5
v 3 11 -1.5
v 3 11 -2.5
v 3 12 0.5
v 3 12 -0.5
v 3 12 -1.5
v 4 2 0.5
v 4 2 -0.5
v 4 3 0.5
v 4 3 -0.5
v 4 6 2.5
v 4 6 0.5
v 4 6 -0.5
v 4 6 -1.5
v 4 7 2.5
v 4 7 1.5
v 4 7 0.5
v 4 7 -0.5
v 4 8 0.5
v 4 8 -0.5
v 4 9 -0.5
v 4 9 -1.5
v 4 10 1.5
v 4 10 0.5
v 4 11 2.5
v 4 11 0.5
v 4 11 -1.5
v -4 7 10.5
v -4 8 10.5
v -3 7 10.5
v -3 8 10.5
v -4 6 8.5
v -4 7 8.5
v -3 6 8.5
v -3 7 8.5
v -5 5 6.5
v -5 8 6.5
v -4 6 6.5
v -4 7 6.5
v -3 6 6.5
v -3 7 6.5
v -2 5 6.5
v -2 8 6.5
v -4 4 5.5
v -4 5 5.5
v -3 4 5.5
v -3 5 5.5
v -4 8 3.5
v -4 10 3.5
v -3 8 3.5
v -3 9 3.5
v 3 9 3.5
v 3 10 3.5
v -4 6 2.5
v -4 7 2.5
v -4 8 2.5
v -3 2 2.5
v -3 3 2.5
v -3 5 2.5
v -3 6 2.5
v -3 7 2.5
v -3 8 2.5
v -2 10 2.5
v -2 11 2.5
v -1 3 2.5
v -1 6 2.5
v 0 2 2.5
v 0 3 2.5
v 0 5 2.5
v 0 10 2.5
v 0 11 2.5
v 1 3 2.5
v 1 5 2.5
v 1 6 2.5
v 1 10 2.5
v 1 11 2.5
v 3 2 2.5
v 3 3 2.5
v 3 6 2.5
v 3 7 2.5
v 3 9 2.5
v 3 10 2.5
v 4 6 2.5
v 4 7 2.5
v 4 11 2.5
v -3 1 1.5
v -3 2 1.5
v -3 6 1.5
v -3 7 1.5
v -3 9 1.5
v -3 10 1.5
v -3 11 1.5
v -2 7 1.5
v -2 8 1.5
v -2 10 1.5
v -2 11 1.5
v -2 12 1.5
v -1 1 1.5
v -1 2 1.5
v -1 6 1.5
v -1 7 1.5
v -1 8 1.5
v -1 9 1.5
v -1 11 1.5
v -1 12 1.5
v 0 11 1.5
v 1 1 1.5
v 1 2 1.5
v 1 6 1.5
v 1 7 1.5
v 1 8 1.5
v 1 11 1.5
v 1 12 1.5
v 2 7 1.5
v 2 8 1.5
v 2 11 1.5
v 2 12 1.5
v 3 1 1.5
v 3 2 1.5
v 3 6 1.5
v 3 7 1.5
v 3 9 1.5
v -4 10 0.5
v -4 11 0.5
v -3 10 0.5
v -3 11 0.5
v -3 12 0.5
v -2 0 0.5
v -2 1 0.5
v -2 11 0.5
v -2 12 0.5
v -1 0 0.5
v -1 1 0.5
v 1 0 0.5
v 1 1 0.5
v 1 12 0.5
v 1 13 0.5
v 2 0 0.5
v 2 1 0.5
v 2 11 0.5
v 2 12 0.5
v 2 13 0.5
v 3 2 0.5
v 3 3 0.5
v 3 6 0.5
v 3 11 0.5
v 3 12 0.5
v 4 2 0.5
v 4 3 0.5
v 4 6 0.5
v -4 6 -0.5
v -4 7 -0.5
v -3 6 -0.5
v -3 7 -0.5
v 3 6 -0.5
v 3 7 -0.5
v 4 6 -0.5
v 4 7 -0.5
v -4 7 7.5
v -4 8 7.5
v -3 7 7.5
v -3 8 7.5
v -5 5 5.5
v -5 8 5.5
v -4 5 5.5
v -4 7 5.5
v -3 5 5.5
v -3 7 5.5
v -2 5 5.5
v -2 8 5.5
v -4 4 4.5
v -4 5 4.5
v -4 6 4.5
v -4 7 4.5
v -3 4 4.5
v -3 5 4.5
v -3 6 4.5
v -3 7 4.5
v -4 6 0.5
v -4 7 0.5
v -3 6 0.5
v -3 7 0.5
v 3 6 0.5
v 3 7 0.5
v 4 6 0.5
v 4 7 0.5
v -4 5 -0.5
v -4 6 -0.5
v -4 10 -0.5
v -4 11 -0.5
v -3 5 -0.5
v -3 6 -0.5
v -3 10 -0.5
v -3 11 -0.5
v -2 0 -0.5
v -2 1 -0.5
v -1 0 -0.5
v -1 1 -0.5
v 1 0 -0.5
v 1 1 -0.5
v 2 0 -0.5
v 2 1 -0.5
v 3 2 -0.5
v 3 3 -0.5
v 3 6 -0.5
v 4 2 -0.5
v 4 3 -0.5
v 4 6 -0.5
v -4 6 -1.5
v -4 10 -1.5
v -3 1 -1.5
v -3 2 -1.5
v -3 6 -1.5
v -3 10 -1.5
v -3 11 -1.5
v -3 12 -1.5
v -2 11 -1.5
v -2 12 -1.5
v -1 1 -1.5
v -1 2 -1.5
v 1 1 -1.5
v 1 2 -1.5
v 1 12 -1.5
v 1 13 -1.5
v 2 11 -1.5
v 2 12 -1.5
v 2 13 -1.5
v 3 1 -1.5
v 3 2 -1.5
v 3 6 -1.5
v 3 9 -1.5
v 3 10 -1.5
v 3 11 -1.5
v 3 12 -1.5
v 4 6 -1.5
v 4 9 -1.5
v 4 11 -1.5
v -3 2 -2.5
v -3 3 -2.5
v -3 6 -2.5
v -3 11 -2.5
v -2 6 -2.5
v -2 11 -2.5
v -2 12 -2.5
v 0 11 -2.5
v 0 12 -2.5
v 2 6 -2.5
v 2 10 -2.5
v 2 11 -2.5
v 2 12 -2.5
v 3 2 -2.5
v 3 3 -2.5
v 3 6 -2.5
v 3 10 -2.5
v 3 11 -2.5
v -2 6 -3.5
v -2 11 -3.5
v 2 6 -3.5
v 2 11 -3.5
v -2 0 0.5
v -1 0 0.5
v 1 0 0.5
v 2 0 0.5
v -2 0 -0.5
v -1 0 -0.5
v 1 0 -0.5
v 2 0 -0.5
v -3 1 1.5
v -1 1 1.5
v 1 1 1.5
v 3 1 1.5
v -2 1 0.5
v -1 1 0.5
v 1 1 0.5
v 2 1 0.5
v -2 1 -0.5
v -1 1 -0.5
v 1 1 -0.5
v 2 1 -0.5
v -3 1 -1.5
v -1 1 -1.5
v 1 1 -1.5
v 3 1 -1.5
v -3 2 2.5
v 0 2 2.5
v 3 2 2.5
v -3 2 1.5
v -1 2 1.5
v 1 2 1.5
v 3 2 1.5
v -1 2 0.5
v 0 2 0.5
v 1 2 0.5
v 3 2 0.5
v 4 2 0.5
v -1 2 -0.5
v 1 2 -0.5
v 3 2 -0.5
v 4 2 -0.5
v -3 2 -1.5
v -1 2 -1.5
v 1 2 -1.5
v 3 2 -1.5
v -3 2 -2.5
v 3 2 -2.5
v -4 4 5.5
v -3 4 5.5
v -4 4 4.5
v -3 4 4.5
v -5 5 6.5
v -2 5 6.5
v -5 5 5.5
v -4 5 5.5
v -3 5 5.5
v -2 5 5.5
v -4 5 4.5
v -3 5 4.5
v -4 5 3.5
v -3 5 3.5
v -3 5 2.5
v -4 5 -0.5
v -3 5 -0.5
v -4 6 8.5
v -3 6 8.5
v -4 6 6.5
v -3 6 6.5
v 3 6 2.5
v 4 6 2.5
v 3 6 0.5
v 4 6 0.5
v -4 6 -0.5
v -3 6 -0.5
v 3 6 -0.5
v 4 6 -0.5
v -4 6 -1.5
v -3 6 -1.5
v 3 6 -1.5
v 4 6 -1.5
v -2 6 -2.5
v 2 6 -2.5
v -2 6 -3.5
v 2 6 -3.5
v -4 7 10.5
v -3 7 10.5
v -4 7 8.5
v -3 7 8.5
v -4 7 0.5
v -3 7 0.5
v 3 7 0.5
v 4 7 0.5
v -4 7 -0.5
v -3 7 -0.5
v 3 7 -0.5
v 4 7 -0.5
v -4 8 3.5
v -3 8 3.5
v -4 8 2.5
v -3 8 2.5
v -3 9 3.5
v 3 9 3.5
v -1 9 2.5
v 3 9 2.5
v -3 9 1.5
v -1 9 1.5
v 3 9 1.5
v -4 6 4.5
v -3 6 4.5
v -4 6 3.5
v -3 6 3.5
v -4 6 2.5
v -3 6 2.5
v -1 6 2.5
v 1 6 2.5
v 3 6 2.5
v -3 6 1.5
v -1 6 1.5
v 1 6 1.5
v 3 6 1.5
v -4 6 0.5
v -3 6 0.5
v 3 6 0.5
v 4 6 0.5
v -4 6 -0.5
v -3 6 -0.5
v 3 6 -0.5
v 4 6 -0.5
v -4 7 7.5
v -3 7 7.5
v -4 7 6.5
v -3 7 6.5
v -4 7 5.5
v -3 7 5.5
v -4 7 4.5
v -3 7 4.5
v -4 8 10.5
v -3 8 10.5
v -4 8 7.5
v -3 8 7.5
v -5 8 6.5
v -2 8 6.5
v -5 8 5.5
v -2 8 5.5
v -4 10 3.5
v 3 10 3.5
v -2 10 2.5
v 0 10 2.5
v 1 10 2.5
v 3 10 2.5
v -3 10 1.5
v -2 10 1.5
v -4 10 0.5
v -3 10 0.5
v -4 10 -0.5
v -3 10 -0.5
v -4 10 -1.5
v -3 10 -1.5
v -2 11 2.5
v 0 11 2.5
v 1 11 2.5
v 4 11 2.5
v -3 11 1.5
v -2 11 1.5
v -1 11 1.5
v 0 11 1.5
v 1 11 1.5
v 2 11 1.5
v -4 11 0.5
v -3 11 0.5
v -2 11 0.5
v 2 11 0.5
v 3 11 0.5
v 4 11 0.5
v -4 11 -0.5
v -3 11 -0.5
v 3 11 -0.5
v -3 11 -1.5
v -2 11 -1.5
v 2 11 -1.5
v 3 11 -1.5
v 4 11 -1.5
v -3 11 -2.5
v -2 11 -2.5
v 0 11 -2.5
v 2 11 -2.5
v 3 11 -2.5
v -2 11 -3.5
v 2 11 -3.5
v -2 12 1.5
v -1 12 1.5
v 1 12 1.5
v 2 12 1.5
v -3 12 0.5
v -2 12 0.5
v 1 12 0.5
v 2 12 0.5
v 3 12 0.5
v 1 12 -0.5
v 2 12 -0.5
v 3 12 -0.5
v -3 12 -1.5
v -2 12 -1.5
v -1 12 -1.5
v 0 12 -1.5
v 1 12 -1.5
v 2 12 -1.5
v 3 12 -1.5
v -2 12 -2.5
v 0 12 -2.5
v 2 12 -2.5
v 1 13 0.5
v 2 13 0.5
v 1 13 -0.5
v 2 13 -0.5
v 1 13 -1.5
v 2 13 -1.5

# faces
f 3/10/1 2/10/1 1/10/1
f 4/10/1 2/10/1 3/10/1
f 7/10/1 6/10/1 5/10/1
f 8/10/1 6/10/1 7/10/1
f 13/10/1 8/10/1 7/10/1
f 13/1/1 9/1/1 8/1/1
f 14/9/1 10/9/1 9/9/1
f 14/1/1 9/1/1 13/1/1
f 15/9/1 10/9/1 14/9/1
f 16/9/1 10/9/1 15/9/1
f 17/9/1 10/9/1 16/9/1
f 20/10/1 12/10/1 11/10/1
f 21/10/1 12/10/1 20/10/1
f 22/10/1 12/10/1 21/10/1
f 23/10/1 13/10/1 7/10/1
f 24/10/1 13/10/1 23/10/1
f 25/13/1 16/13/1 15/13/1
f 26/13/1 16/13/1 25/13/1
f 27/12/1 18/12/1 17/12/1
f 28/10/1 20/10/1 19/10/1
f 28/10/1 21/10/1 20/10/1
f 29/10/1 21/10/1 28/10/1
f 31/12/1 26/12/1 25/12/1
f 32/2/1 27/2/1 26/2/1
f 32/12/1 26/12/1 31/12/1
f 33/12/1 18/12/1 27/12/1
f 33/2/1 27/2/1 32/2/1
f 34/12/1 31/12/1 30/12/1
f 34/12/1 32/12/1 31/12/1
f 34/12/1 33/12/1 32/12/1
f 35/12/1 33/12/1 34/12/1
f 36/12/1 18/12/1 33/12/1
f 36/12/1 33/12/1 35/12/1
f 37/12/1 18/12/1 36/12/1
f 38/12/1 36/12/1 35/12/1
f 39/12/1 36/12/1 38/12/1
f 43/5/1 41/5/1 40/5/1
f 44/5/1 41/5/1 43/5/1
f 46/5/1 43/5/1 42/5/1
f 46/5/1 45/5/1 44/5/1
f 46/5/1 44/5/1 43/5/1
f 47/5/1 45/5/1 46/5/1
f 48/7/1 47/7/1 46/7/1
f 49/7/1 47/7/1 48/7/1
f 51/7/1 47/7/1 49/7/1
f 52/7/1 47/7/1 51/7/1
f 53/7/1 47/7/1 52/7/1
f 54/12/1 51/12/1 50/12/1
f 55/12/1 51/12/1 54/12/1
f 59/12/1 53/12/1 52/12/1
f 60/12/1 57/12/1 56/12/1
f 61/12/1 57/12/1 60/12/1
f 62/12/1 59/12/1 58/12/1
f 63/12/1 53/12/1 59/12/1
f 63/12/1 59/12/1 62/12/1
f 64/12/1 53/12/1 63/12/1
f 65/12/1 62/12/1 61/12/1
f 65/12/1 63/12/1 62/12/1
f 66/12/1 63/12/1 65/12/1
f 69/8/1 68/8/1 67/8/1
f 70/8/1 68/8/1 69/8/1
f 75/12/1 74/12/1 73/12/1
f 76/12/1 74/12/1 75/12/1
f 79/12/1 72/12/1 71/12/1
f 80/12/1 72/12/1 79/12/1
f 81/12/1 77/12/1 76/12/1
f 82/12/1 77/12/1 81/12/1
f 83/12/1 79/12/1 78/12/1
f 84/12/1 79/12/1 83/12/1
f 88/8/1 86/8/1 85/8/1
f 89/8/1 86/8/1 88/8/1
f 91/5/1 88/5/1 87/5/1
f 92/4/1 89/4/1 88/4/1
f 92/5/1 88/5/1 91/5/1
f 93/5/1 90/5/1 89/5/1
f 93/4/1 89/4/1 92/4/1
f 94/5/1 90/5/1 93/5/1
f 98/10/1 96/10/1 95/10/1
f 99/11/1 97/11/1 96/11/1
f 99/10/1 96/10/1 98/10/1
f 100/11/1 97/11/1 99/11/1
f 103/11/1 102/11/1 101/11/1
f 104/11/1 102/11/1 103/11/1
f 105/10/1 104/10/1 103/10/1
f 106/10/1 104/10/1 105/10/1
f 107/10/2 108/10/2 109/10/2
f 109/10/2 108/10/2 110/10/2
f 109/10/2 110/10/2 115/10/2
f 110/1/2 111/1/2 115/1/2
f 111/9/2 112/9/2 116/9/2
f 115/1/2 111/1/2 116/1/2
f 116/9/2 112/9/2 117/9/2
f 113/10/2 114/10/2 120/10/2
f 120/10/2 114/10/2 121/10/2
f 121/10/2 114/10/2 122/10/2
f 109/10/2 115/10/2 123/10/2
f 123/10/2 115/10/2 124/10/2
f 117/13/2 118/13/2 125/13/2
f 125/13/2 118/13/2 126/13/2
f 119/10/2 120/10/2 127/10/2
f 120/10/2 121/10/2 127/10/2
f 127/10/2 121/10/2 128/10/2
f 125/12/2 126/12/2 130/12/2
f 129/12/2 130/12/2 131/12/2
f 130/12/2 126/12/2 132/12/2
f 131/12/2 130/12/2 132/12/2
f 133/10/2 134/10/2 135/10/2
f 135/10/2 134/10/2 136/10/2
f 137/8/2 138/8/2 140/8/2
f 140/8/2 138/8/2 141/8/2
f 139/5/2 140/5/2 143/5/2
f 140/6/2 141/6/2 144/6/2
f 143/5/2 140/5/2 144/5/2
f 141/5/2 142/5/2 145/5/2
f 144/6/2 141/6/2 145/6/2
f 145/5/2 142/5/2 146/5/2
f 147/8/2 148/8/2 149/8/2
f 149/8/2 148/8/2 150/8/2
f 151/12/2 152/12/2 153/12/2
f 153/12/2 152/12/2 157/12/2
f 157/12/2 152/12/2 158/12/2
f 154/10/2 155/10/2 159/10/2
f 159/10/2 155/10/2 160/10/2
f 156/11/2 157/11/2 162/11/2
f 162/11/2 157/11/2 163/11/2
f 160/10/2 161/10/2 164/10/2
f 161/11/2 162/11/2 165/11/2
f 164/10/2 161/10/2 165/10/2
f 165/11/2 162/11/2 166/11/2
f 167/5/2 168/5/2 170/5/2
f 170/5/2 168/5/2 171/5/2
f 171/5/2 168/5/2 172/5/2
f 172/5/2 168/5/2 173/5/2
f 169/3/2 170/3/2 175/3/2
f 170/3/2 171/3/2 175/3/2
f 175/3/2 171/3/2 176/3/2
f 173/5/2 174/5/2 177/5/2
f 172/5/2 173/5/2 177/5/2
f 177/5/2 174/5/2 178/5/2
f 175/5/2 176/5/2 179/5/2
f 179/5/2 176/5/2 180/5/2
f 177/7/2 178/7/2 181/7/2
f 181/7/2 178/7/2 182/7/2
f 182/7/2 178/7/2 183/7/2
f 180/12/2 181/12/2 184/12/2
f 184/12/2 181/12/2 185/12/2
f 182/12/2 183/12/2 188/12/2
f 186/12/2 187/12/2 189/12/2
f 189/12/2 187/12/2 190/12/2
f 188/12/2 183/12/2 191/12/2
f 191/12/2 183/12/2 192/12/2
f 191/11/2 192/11/2 195/11/2
f 195/11/2 192/11/2 196/11/2
f 193/10/2 194/10/2 197/10/2
f 194/11/2 195/11/2 198/11/2
f 197/10/2 194/10/2 198/10/2
f 198/11/2 195/11/2 199/11/2
f 200/1/2 201/1/2 202/1/2
f 202/1/2 201/1/2 203/1/2
f 202/9/2 203/9/2 205/9/2
f 205/9/2 203/9/2 206/9/2
f 204/11/2 205/11/2 208/11/2
f 208/11/2 205/11/2 209/11/2
f 209/11/2 205/11/2 210/11/2
f 206/12/2 207/12/2 211/12/2
f 209/11/2 210/11/2 212/11/2
f 210/2/2 211/2/2 212/2/2
f 211/12/2 207/12/2 213/12/2
f 212/2/2 211/2/2 213/2/2
f 212/11/2 213/11/2 214/11/2
f 213/12/2 207/12/2 214/12/2
f 214/12/2 207/12/2 215/12/2
f 209/11/2 212/11/2 216/11/2
f 208/10/2 209/10/2 216/10/2
f 214/11/2 215/11/2 216/11/2
f 212/11/2 214/11/2 216/11/2
f 216/11/2 215/11/2 217/11/2
f 208/10/2 216/10/2 218/10/2
f 216/10/2 217/10/2 218/10/2
f 217/11/2 215/11/2 219/11/2
f 218/10/2 217/10/2 219/10/2
f 219/11/2 215/11/2 220/11/2
f 223/10/3 222/10/3 221/10/3
f 224/10/3 222/10/3 223/10/3
f 227/10/3 226/10/3 225/10/3
f 228/10/3 226/10/3 227/10/3
f 231/10/3 230/10/3 229/10/3
f 232/10/3 230/10/3 231/10/3
f 233/10/3 231/10/3 229/10/3
f 234/10/3 230/10/3 232/10/3
f 235/10/3 233/10/3 229/10/3
f 235/10/3 234/10/3 233/10/3
f 236/10/3 230/10/3 234/10/3
f 236/10/3 234/10/3 235/10/3
f 239/10/3 238/10/3 237/10/3
f 240/10/3 238/10/3 239/10/3
f 243/12/3 242/12/3 241/12/3
f 244/12/3 242/12/3 243/12/3
f 245/12/3 242/12/3 244/12/3
f 246/12/3 242/12/3 245/12/3
f 253/13/3 248/13/3 247/13/3
f 254/12/3 249/12/3 248/12/3
f 254/13/3 248/13/3 253/13/3
f 255/12/3 249/12/3 254/12/3
f 258/7/3 252/7/3 251/7/3
f 258/7/3 253/7/3 252/7/3
f 258/5/3 251/5/3 250/5/3
f 259/7/3 253/7/3 258/7/3
f 260/5/3 258/5/3 250/5/3
f 261/9/3 259/9/3 258/9/3
f 261/5/3 258/5/3 260/5/3
f 262/9/3 259/9/3 261/9/3
f 263/12/3 257/12/3 256/12/3
f 264/12/3 257/12/3 263/12/3
f 265/7/3 262/7/3 261/7/3
f 265/3/3 261/3/3 260/3/3
f 266/9/3 259/9/3 262/9/3
f 266/7/3 262/7/3 265/7/3
f 267/9/3 259/9/3 266/9/3
f 268/11/3 264/11/3 263/11/3
f 269/11/3 264/11/3 268/11/3
f 270/3/3 265/3/3 260/3/3
f 271/5/3 267/5/3 266/5/3
f 271/3/3 265/3/3 270/3/3
f 271/5/3 266/5/3 265/5/3
f 272/5/3 267/5/3 271/5/3
f 275/10/3 269/10/3 268/10/3
f 276/11/3 273/11/3 272/11/3
f 277/10/3 274/10/3 273/10/3
f 277/11/3 273/11/3 276/11/3
f 277/10/3 275/10/3 274/10/3
f 278/10/3 269/10/3 275/10/3
f 278/10/3 275/10/3 277/10/3
f 286/2/3 282/2/3 281/2/3
f 286/2/3 283/2/3 282/2/3
f 287/2/3 283/2/3 286/2/3
f 288/12/3 285/12/3 284/12/3
f 289/12/3 285/12/3 288/12/3
f 291/5/3 280/5/3 279/5/3
f 292/5/3 280/5/3 291/5/3
f 293/2/3 286/2/3 281/2/3
f 294/13/3 287/13/3 286/13/3
f 294/2/3 286/2/3 293/2/3
f 295/2/3 283/2/3 287/2/3
f 295/13/3 287/13/3 294/13/3
f 296/2/3 283/2/3 295/2/3
f 297/12/3 290/12/3 289/12/3
f 298/12/3 290/12/3 297/12/3
f 299/11/3 298/11/3 297/11/3
f 302/11/3 294/11/3 293/11/3
f 303/1/3 296/1/3 295/1/3
f 303/11/3 294/11/3 302/11/3
f 303/1/3 295/1/3 294/1/3
f 304/1/3 296/1/3 303/1/3
f 305/11/3 298/11/3 299/11/3
f 306/11/3 298/11/3 305/11/3
f 307/1/3 303/1/3 302/1/3
f 307/13/3 304/13/3 303/13/3
f 308/1/3 296/1/3 304/1/3
f 308/13/3 304/13/3 307/13/3
f 309/10/3 306/10/3 305/10/3
f 310/10/3 306/10/3 309/10/3
f 311/5/3 301/5/3 300/5/3
f 312/5/3 301/5/3 311/5/3
f 313/1/3 307/1/3 302/1/3
f 313/1/3 308/1/3 307/1/3
f 314/1/3 308/1/3 313/1/3
f 315/1/3 296/1/3 308/1/3
f 315/1/3 308/1/3 314/1/3
f 318/12/3 317/12/3 316/12/3
f 319/12/3 317/12/3 318/12/3
f 323/12/3 320/12/3 319/12/3
f 324/12/3 320/12/3 323/12/3
f 325/8/3 322/8/3 321/8/3
f 326/8/3 322/8/3 325/8/3
f 331/8/3 328/8/3 327/8/3
f 332/8/3 328/8/3 331/8/3
f 334/10/3 330/10/3 329/10/3
f 335/10/3 330/10/3 334/10/3
f 339/10/3 334/10/3 333/10/3
f 340/10/3 334/10/3 339/10/3
f 341/1/3 337/1/3 336/1/3
f 342/9/3 338/9/3 337/9/3
f 342/1/3 337/1/3 341/1/3
f 343/9/3 338/9/3 342/9/3
f 346/12/3 345/12/3 344/12/3
f 347/12/3 345/12/3 346/12/3
f 350/12/3 349/12/3 348/12/3
f 351/12/3 349/12/3 350/12/3
f 352/10/4 353/10/4 354/10/4
f 354/10/4 353/10/4 355/10/4
f 356/10/4 357/10/4 358/10/4
f 358/10/4 357/10/4 359/10/4
f 359/10/4 357/10/4 361/10/4
f 360/10/4 361/10/4 362/10/4
f 361/10/4 357/10/4 363/10/4
f 362/10/4 361/10/4 363/10/4
f 364/10/4 365/10/4 368/10/4
f 368/10/4 365/10/4 369/10/4
f 366/10/4 367/10/4 370/10/4
f 370/10/4 367/10/4 371/10/4
f 372/13/4 373/13/4 374/13/4
f 374/13/4 373/13/4 375/13/4
f 376/11/4 377/11/4 378/11/4
f 378/11/4 377/11/4 379/11/4
f 380/9/4 381/9/4 384/9/4
f 384/9/4 381/9/4 385/9/4
f 382/12/4 383/12/4 386/12/4
f 386/12/4 383/12/4 387/12/4
f 388/8/4 389/8/4 390/8/4
f 390/8/4 389/8/4 391/8/4
f 392/8/4 393/8/4 394/8/4
f 394/8/4 393/8/4 395/8/4
f 396/1/4 397/1/4 399/1/4
f 397/9/4 398/9/4 400/9/4
f 399/1/4 397/1/4 400/1/4
f 400/9/4 398/9/4 401/9/4
f 402/12/4 403/12/4 406/12/4
f 406/12/4 403/12/4 407/12/4
f 408/12/4 409/12/4 410/12/4
f 410/12/4 409/12/4 411/12/4
f 404/5/4 405/5/4 412/5/4
f 412/5/4 405/5/4 413/5/4
f 416/11/4 417/11/4 419/11/4
f 419/11/4 417/11/4 420/11/4
f 414/5/4 415/5/4 421/5/4
f 421/5/4 415/5/4 422/5/4
f 418/11/4 419/11/4 426/11/4
f 426/11/4 419/11/4 427/11/4
f 423/12/4 424/12/4 428/12/4
f 424/11/4 425/11/4 429/11/4
f 428/12/4 424/12/4 429/12/4
f 425/11/4 426/11/4 429/11/4
f 429/11/4 426/11/4 430/11/4
f 432/7/4 433/7/4 435/7/4
f 433/12/4 434/12/4 435/12/4
f 435/12/4 434/12/4 436/12/4
f 436/12/4 437/12/4 438/12/4
f 438/12/4 437/12/4 439/12/4
f 432/7/4 435/7/4 440/7/4
f 438/11/4 439/11/4 442/11/4
f 442/11/4 439/11/4 443/11/4
f 431/5/4 432/5/4 444/5/4
f 432/7/4 440/7/4 445/7/4
f 444/5/4 432/5/4 445/5/4
f 440/12/4 441/12/4 446/12/4
f 445/7/4 440/7/4 446/7/4
f 441/11/4 442/11/4 447/11/4
f 446/12/4 441/12/4 447/12/4
f 447/11/4 442/11/4 448/11/4
f 449/12/4 450/12/4 451/12/4
f 451/12/4 450/12/4 452/12/4
f 457/8/5 454/8/5 453/8/5
f 458/8/5 454/8/5 457/8/5
f 459/8/5 456/8/5 455/8/5
f 460/8/5 456/8/5 459/8/5
f 465/5/5 462/5/5 461/5/5
f 466/5/5 462/5/5 465/5/5
f 467/5/5 464/5/5 463/5/5
f 468/5/5 464/5/5 467/5/5
f 469/5/5 465/5/5 461/5/5
f 472/5/5 464/5/5 468/5/5
f 473/5/5 470/5/5 469/5/5
f 473/5/5 469/5/5 461/5/5
f 474/5/5 470/5/5 473/5/5
f 475/5/5 472/5/5 471/5/5
f 476/5/5 464/5/5 472/5/5
f 476/5/5 472/5/5 475/5/5
f 480/5/5 478/5/5 477/5/5
f 481/5/5 478/5/5 480/5/5
f 482/3/5 479/3/5 478/3/5
f 483/3/5 479/3/5 482/3/5
f 484/5/5 478/5/5 481/5/5
f 485/3/5 482/3/5 478/3/5
f 485/5/5 478/5/5 484/5/5
f 486/3/5 482/3/5 485/3/5
f 489/5/5 486/5/5 485/5/5
f 489/5/5 485/5/5 484/5/5
f 490/5/5 486/5/5 489/5/5
f 491/1/5 488/1/5 487/1/5
f 492/1/5 488/1/5 491/1/5
f 494/5/5 490/5/5 489/5/5
f 495/5/5 490/5/5 494/5/5
f 497/5/5 494/5/5 493/5/5
f 497/5/5 496/5/5 495/5/5
f 497/5/5 495/5/5 494/5/5
f 498/5/5 496/5/5 497/5/5
f 501/10/5 500/10/5 499/10/5
f 502/10/5 500/10/5 501/10/5
f 505/10/5 504/10/5 503/10/5
f 506/10/5 504/10/5 505/10/5
f 507/10/5 504/10/5 506/10/5
f 508/10/5 504/10/5 507/10/5
f 511/1/5 510/1/5 509/1/5
f 512/1/5 510/1/5 511/1/5
f 513/9/5 512/9/5 511/9/5
f 514/9/5 513/9/5 511/9/5
f 515/9/5 513/9/5 514/9/5
f 518/10/5 517/10/5 516/10/5
f 519/10/5 517/10/5 518/10/5
f 522/11/5 521/11/5 520/11/5
f 523/11/5 521/11/5 522/11/5
f 528/12/5 525/12/5 524/12/5
f 529/12/5 525/12/5 528/12/5
f 530/12/5 527/12/5 526/12/5
f 531/12/5 527/12/5 530/12/5
f 534/12/5 533/12/5 532/12/5
f 535/12/5 533/12/5 534/12/5
f 538/10/5 537/10/5 536/10/5
f 539/10/5 537/10/5 538/10/5
f 544/2/5 541/2/5 540/2/5
f 545/2/5 541/2/5 544/2/5
f 546/2/5 543/2/5 542/2/5
f 547/2/5 543/2/5 546/2/5
f 550/12/5 549/12/5 548/12/5
f 551/12/5 549/12/5 550/12/5
f 554/12/5 553/12/5 552/12/5
f 555/12/5 553/12/5 554/12/5
f 556/12/5 554/12/5 552/12/5
f 557/10/5 555/10/5 554/10/5
f 557/12/5 554/12/5 556/12/5
f 558/10/5 555/10/5 557/10/5
f 559/1/6 560/1/6 561/1/6
f 561/1/6 560/1/6 562/1/6
f 561/9/6 562/9/6 563/9/6
f 563/9/6 562/9/6 564/9/6
f 564/7/6 565/7/6 568/7/6
f 565/9/6 566/9/6 569/9/6
f 568/7/6 565/7/6 569/7/6
f 566/5/6 567/5/6 570/5/6
f 569/9/6 566/9/6 570/9/6
f 570/5/6 567/5/6 571/5/6
f 572/9/6 573/9/6 576/9/6
f 576/9/6 573/9/6 577/9/6
f 574/9/6 575/9/6 578/9/6
f 578/9/6 575/9/6 579/9/6
f 580/10/6 581/10/6 582/10/6
f 582/10/6 581/10/6 583/10/6
f 584/10/6 585/10/6 586/10/6
f 586/10/6 585/10/6 587/10/6
f 588/10/6 589/10/6 590/10/6
f 590/10/6 589/10/6 591/10/6
f 592/10/6 593/10/6 594/10/6
f 594/10/6 593/10/6 595/10/6
f 596/12/6 597/12/6 598/12/6
f 598/12/6 597/12/6 599/12/6
f 599/12/6 597/12/6 600/12/6
f 600/12/6 597/12/6 601/12/6
f 596/12/6 598/12/6 602/12/6
f 602/12/6 598/12/6 603/12/6
f 596/12/6 602/12/6 604/12/6
f 604/12/6 602/12/6 605/12/6
f 606/12/6 607/12/6 608/12/6
f 608/12/6 607/12/6 609/12/6
f 610/12/6 611/12/6 615/12/6
f 615/12/6 611/12/6 616/12/6
f 611/11/6 612/11/6 617/11/6
f 616/12/6 611/12/6 617/12/6
f 612/10/6 613/10/6 618/10/6
f 617/11/6 612/11/6 618/11/6
f 618/10/6 613/10/6 619/10/6
f 614/12/6 615/12/6 621/12/6
f 621/12/6 615/12/6 622/12/6
f 619/10/6 613/10/6 623/10/6
f 623/10/6 613/10/6 624/10/6
f 624/10/6 613/10/6 625/10/6
f 620/12/6 621/12/6 626/12/6
f 626/12/6 621/12/6 627/12/6
f 624/11/6 625/11/6 628/11/6
f 628/11/6 625/11/6 632/11/6
f 632/11/6 625/11/6 633/11/6
f 629/12/6 630/12/6 634/12/6
f 634/12/6 630/12/6 635/12/6
f 631/11/6 632/11/6 637/11/6
f 637/11/6 632/11/6 638/11/6
f 635/12/6 636/12/6 639/12/6
f 636/12/6 637/12/6 639/12/6
f 639/12/6 637/12/6 640/12/6
f 641/12/6 642/12/6 646/12/6
f 643/10/6 644/10/6 647/10/6
f 642/11/6 643/11/6 647/11/6
f 647/10/6 644/10/6 648/10/6
f 642/11/6 647/11/6 650/11/6
f 648/10/6 649/10/6 651/10/6
f 651/10/6 649/10/6 652/10/6
f 645/12/6 646/12/6 653/12/6
f 646/12/6 642/12/6 654/12/6
f 653/12/6 646/12/6 654/12/6
f 642/11/6 650/11/6 655/11/6
f 654/12/6 642/12/6 655/12/6
f 655/11/6 650/11/6 656/11/6
f 656/11/6 650/11/6 657/11/6
f 651/11/6 652/11/6 658/11/6
f 658/11/6 652/11/6 659/11/6
f 654/12/6 655/12/6 660/12/6
f 655/12/6 656/12/6 660/12/6
f 656/11/6 657/11/6 661/11/6
f 660/12/6 656/12/6 661/12/6
f 657/11/6 658/11/6 661/11/6
f 661/11/6 658/11/6 662/11/6
f 663/10/6 664/10/6 665/10/6
f 665/10/6 664/10/6 666/10/6
f 665/11/6 666/11/6 667/11/6
f 667/11/6 666/11/6 668/11/6
